<svg width="56" height="56" viewBox="0 0 56 56" fill="none" xmlns="http://www.w3.org/2000/svg">
<circle cx="28" cy="28" r="28" fill='#DADADA'/>
<g clip-path="url(#clip0_121_54)">
<path d="M28 28C30.1217 28 32.1566 27.1571 33.6569 25.6569C35.1571 24.1566 36 22.1217 36 20C36 17.8783 35.1571 15.8434 33.6569 14.3431C32.1566 12.8429 30.1217 12 28 12C25.8783 12 23.8434 12.8429 22.3431 14.3431C20.8429 15.8434 20 17.8783 20 20C20 22.1217 20.8429 24.1566 22.3431 25.6569C23.8434 27.1571 25.8783 28 28 28ZM25.1438 31C18.9875 31 14 35.9875 14 42.1437C14 43.1687 14.8313 44 15.8563 44H40.1437C41.1687 44 42 43.1687 42 42.1437C42 35.9875 37.0125 31 30.8563 31H25.1438Z" fill="#14140F"/>
</g>
<defs>
<clipPath id="clip0_121_54">
<rect width="28" height="32" fill="white" transform="translate(14 12)"/>
</clipPath>
</defs>
</svg>
