<svg width="393" height="220" viewBox="0 0 393 220" fill="none" xmlns="http://www.w3.org/2000/svg">
<path fill-rule="evenodd" clip-rule="evenodd" d="M221.761 -3.767C245.685 1.53401 252.278 23.2683 278 22C318.829 19.9869 388.784 -29.1511 417.916 -13.4385C445.213 1.28394 365.448 49.0922 367 70C368.242 86.7275 428.516 80.4939 426.128 97.1844C423.585 114.958 426.504 141.351 395.668 147.323C354.266 155.341 303.869 122.75 270 138C239 168 269.5 186 221 215.5C188.239 228.5 148.596 206.379 112.535 195.328C78.4333 184.877 13.8758 183.3 14.0999 161.986C14.4336 130.252 97.5896 123.387 89 92C81.3089 63.8959 -2.45715 68.8576 -18.7719 41.8685C-30.2843 22.8236 42.375 19.4732 64.1929 3.32461C87.1817 -13.6907 71.9911 -52.1788 110.643 -53.9184C159.189 -56.1033 176.639 -13.7648 221.761 -3.767Z" fill="#1F1F1F"/>
<circle cx="199" cy="165" r="55" fill="#D9D9D9"/>
</svg>
