<svg width="103" height="30" viewBox="0 0 103 30" fill="none" xmlns="http://www.w3.org/2000/svg">
<path d="M46.9 25H44.68V11.04H49.9C51.2333 11.04 52.2467 11.4133 52.94 12.16C53.6467 12.9067 54 13.9333 54 15.24C54 16.3067 53.74 17.1867 53.22 17.88C52.7 18.5733 51.9533 19 50.98 19.16L54.2 25H51.72L48.76 19.36H46.9V25ZM49.58 17.56C50.9667 17.56 51.66 16.9267 51.66 15.66V14.8C51.66 13.5333 50.9667 12.9 49.58 12.9H46.9V17.56H49.58ZM61.2122 25.24C60.4255 25.24 59.7189 25.1133 59.0922 24.86C58.4655 24.6067 57.9389 24.2467 57.5122 23.78C57.0855 23.3133 56.7589 22.7533 56.5322 22.1C56.3055 21.4333 56.1922 20.6867 56.1922 19.86C56.1922 19.0333 56.3055 18.2867 56.5322 17.62C56.7722 16.9533 57.0989 16.3867 57.5122 15.92C57.9389 15.44 58.4522 15.0733 59.0522 14.82C59.6522 14.5667 60.3189 14.44 61.0522 14.44C61.7722 14.44 62.4255 14.5667 63.0122 14.82C63.5989 15.06 64.0989 15.4067 64.5122 15.86C64.9255 16.3133 65.2389 16.8533 65.4522 17.48C65.6789 18.1067 65.7922 18.8 65.7922 19.56V20.38H58.3922V20.72C58.3922 21.5333 58.6455 22.2 59.1522 22.72C59.6589 23.2267 60.3589 23.48 61.2522 23.48C61.9189 23.48 62.4855 23.34 62.9522 23.06C63.4322 22.7667 63.8189 22.38 64.1122 21.9L65.4722 23.1C65.1255 23.7 64.5922 24.2067 63.8722 24.62C63.1655 25.0333 62.2789 25.24 61.2122 25.24ZM61.0522 16.1C60.6655 16.1 60.3055 16.1667 59.9722 16.3C59.6522 16.4333 59.3722 16.6267 59.1322 16.88C58.9055 17.12 58.7255 17.4067 58.5922 17.74C58.4589 18.0733 58.3922 18.44 58.3922 18.84V18.98H63.5722V18.78C63.5722 17.9667 63.3389 17.32 62.8722 16.84C62.4189 16.3467 61.8122 16.1 61.0522 16.1ZM73.0044 25.24C71.8844 25.24 70.9177 25.06 70.1044 24.7C69.3044 24.34 68.6577 23.86 68.1644 23.26L69.5044 22.06C69.9577 22.5533 70.4644 22.9333 71.0244 23.2C71.5977 23.4533 72.271 23.58 73.0444 23.58C73.751 23.58 74.3177 23.46 74.7444 23.22C75.1844 22.98 75.4044 22.6067 75.4044 22.1C75.4044 21.8867 75.3644 21.7067 75.2844 21.56C75.2044 21.4133 75.091 21.2933 74.9444 21.2C74.7977 21.1067 74.6244 21.0333 74.4244 20.98C74.2377 20.9267 74.0377 20.8867 73.8244 20.86L72.1844 20.6C71.7844 20.5467 71.3777 20.46 70.9644 20.34C70.551 20.22 70.1777 20.0533 69.8444 19.84C69.5244 19.6133 69.2577 19.3267 69.0444 18.98C68.8444 18.6333 68.7444 18.1933 68.7444 17.66C68.7444 16.6067 69.1444 15.8067 69.9444 15.26C70.7577 14.7133 71.8244 14.44 73.1444 14.44C74.1044 14.44 74.931 14.5867 75.6244 14.88C76.331 15.16 76.9177 15.5533 77.3844 16.06L76.1644 17.34C75.8977 17.0333 75.5177 16.7533 75.0244 16.5C74.531 16.2333 73.8777 16.1 73.0644 16.1C71.611 16.1 70.8844 16.56 70.8844 17.48C70.8844 17.92 71.0377 18.2267 71.3444 18.4C71.6644 18.56 72.0377 18.6667 72.4644 18.72L74.1044 18.98C74.5177 19.0467 74.9244 19.1333 75.3244 19.24C75.7377 19.3467 76.1044 19.5133 76.4244 19.74C76.7577 19.9533 77.0244 20.2333 77.2244 20.58C77.4377 20.9267 77.5444 21.3667 77.5444 21.9C77.5444 22.94 77.1377 23.76 76.3244 24.36C75.5244 24.9467 74.4177 25.24 73.0044 25.24ZM85.1966 25.24C84.4099 25.24 83.7032 25.1133 83.0766 24.86C82.4499 24.6067 81.9232 24.2467 81.4966 23.78C81.0699 23.3133 80.7432 22.7533 80.5166 22.1C80.2899 21.4333 80.1766 20.6867 80.1766 19.86C80.1766 19.0333 80.2899 18.2867 80.5166 17.62C80.7566 16.9533 81.0832 16.3867 81.4966 15.92C81.9232 15.44 82.4366 15.0733 83.0366 14.82C83.6366 14.5667 84.3032 14.44 85.0366 14.44C85.7566 14.44 86.4099 14.5667 86.9966 14.82C87.5832 15.06 88.0832 15.4067 88.4966 15.86C88.9099 16.3133 89.2232 16.8533 89.4366 17.48C89.6632 18.1067 89.7766 18.8 89.7766 19.56V20.38H82.3766V20.72C82.3766 21.5333 82.6299 22.2 83.1366 22.72C83.6432 23.2267 84.3432 23.48 85.2366 23.48C85.9032 23.48 86.4699 23.34 86.9366 23.06C87.4166 22.7667 87.8032 22.38 88.0966 21.9L89.4566 23.1C89.1099 23.7 88.5766 24.2067 87.8566 24.62C87.1499 25.0333 86.2632 25.24 85.1966 25.24ZM85.0366 16.1C84.6499 16.1 84.2899 16.1667 83.9566 16.3C83.6366 16.4333 83.3566 16.6267 83.1166 16.88C82.8899 17.12 82.7099 17.4067 82.5766 17.74C82.4432 18.0733 82.3766 18.44 82.3766 18.84V18.98H87.5566V18.78C87.5566 17.9667 87.3232 17.32 86.8566 16.84C86.4032 16.3467 85.7966 16.1 85.0366 16.1ZM97.5888 25C96.6821 25 96.0154 24.76 95.5888 24.28C95.1621 23.7867 94.9488 23.1533 94.9488 22.38V16.44H91.7688V14.68H94.0288C94.4154 14.68 94.6888 14.6067 94.8488 14.46C95.0088 14.3 95.0888 14.02 95.0888 13.62V11.04H97.1288V14.68H101.529V16.44H97.1288V23.24H101.529V25H97.5888Z" fill="white"/>
<path d="M27.1582 13.1251H27.6562C28.4355 13.1251 29.0625 12.4981 29.0625 11.7188V4.2188C29.0625 3.65044 28.7227 3.13482 28.1953 2.91802C27.668 2.70123 27.0645 2.81841 26.6602 3.22271L24.2227 5.66021C19.0898 0.59185 10.8223 0.609429 5.71875 5.7188C0.591797 10.8458 0.591797 19.1544 5.71875 24.2813C10.8457 29.4083 19.1543 29.4083 24.2812 24.2813C25.0137 23.5489 25.0137 22.3594 24.2812 21.627C23.5488 20.8946 22.3594 20.8946 21.627 21.627C17.9648 25.2891 12.0293 25.2891 8.36719 21.627C4.70508 17.9649 4.70508 12.0294 8.36719 8.36724C12.0117 4.72271 17.9004 4.70513 21.5684 8.30865L19.1602 10.7227C18.7559 11.127 18.6387 11.7305 18.8555 12.2579C19.0723 12.7852 19.5879 13.1251 20.1562 13.1251H27.1582Z" fill="white"/>
</svg>
